<?xml version="1.0" encoding="UTF-8"?>
<svg width="61.776mm" height="52.251mm" version="1.1" viewBox="0 0 61.776421 52.251431" xmlns="http://www.w3.org/2000/svg">
<g transform="translate(-74.853 -108.97)">
<path d="m81.63 157.96c-0.90465-4.828-6.7763-46.132-6.7763-47.668 0-1.1474 3.997-1.3179 30.888-1.3179h30.888v1.9911c0 1.0951-1.6206 12.558-3.6013 25.473-1.9807 12.915-3.6024 23.775-3.6036 24.135-1e-3 0.35923-10.618 0.65314-23.593 0.65314h-23.59zm44.225-3.048c0.42458-0.95185 6.6571-40.035 6.6571-41.745 0-0.35898-12.047-0.76335-26.771-0.89861-15.566-0.14299-26.77 0.085-26.77 0.5448 1e-3 1.5428 6.3048 41.028 6.7206 42.099 0.31855 0.82029 5.26 1.0886 20.05 1.0886 14.756 0 19.748-0.27015 20.113-1.0886zm-39.11-3.4834c-0.53984-1.4711-3.6543-23.449-3.6543-25.788 0-1.547 0.60902-1.8616 3.6036-1.8616h3.6036v14.369c0 12.323-0.22454 14.369-1.5767 14.369-0.8672 0-1.7565-0.48986-1.9762-1.0886zm8.701-13.281v-14.369h33.569l-2.3014 14.151c-1.2657 7.7833-2.3323 14.249-2.3701 14.369-0.0379 0.11974-6.5553 0.21771-14.483 0.21771h-14.415z" stroke-width=".94691"/>
</g>
</svg>
